<svg width="130" height="129" viewBox="0 0 130 129" fill="none" xmlns="http://www.w3.org/2000/svg">
<path d="M65.001 4.20954e-06C29.4751 -0.0127416 0.488341 28.9201 0.462846 64.4043C0.437352 99.9523 29.2966 128.936 64.7971 129C100.387 129.076 129.437 100.131 129.463 64.5955C129.501 28.9966 100.578 0.01275 65.001 4.20954e-06ZM64.8353 120.422C33.8091 120.269 8.87588 95.1726 9.06709 64.2769C9.24554 33.3174 34.3317 8.4377 65.1795 8.60339C96.142 8.76909 121.024 33.8273 120.884 64.6847C120.731 95.6442 95.6576 120.588 64.8353 120.422Z" fill="#2BC7D9"/>
<path d="M82.1713 77.456C82.133 83.4082 78.5766 87.9712 72.2796 90.2017C71.2981 90.5459 69.8577 90.3674 69.3988 91.2341C68.9526 92.0754 69.284 93.3372 69.2713 94.4078C69.2331 97.7472 66.2248 99.8885 63.3184 98.6139C61.5976 97.8619 60.7308 96.4726 60.6798 94.599C60.6416 93.4392 61.0622 91.9734 60.5141 91.1959C59.9787 90.4439 58.4491 90.4184 57.3783 90.036C51.4765 87.9585 47.9328 83.4082 47.8053 77.7619C47.7416 75.1107 49.4624 73.1479 51.9099 73.0587C54.421 72.9695 56.2566 74.6901 56.3968 77.354C56.486 79.1894 57.3783 80.5404 58.9462 81.3307C62.9615 83.37 67.0788 83.421 71.0559 81.3307C74.3191 79.61 74.5868 74.7921 71.6805 72.2939C69.7429 70.6242 67.321 69.885 64.9628 69.0565C61.1005 67.6927 57.1361 66.5711 53.7709 64.0602C48.8888 60.4021 46.5306 53.239 48.4809 47.4779C50.087 42.7365 53.7199 40.1746 58.2706 38.7089C60.6926 37.9314 60.7053 37.9696 60.7053 35.4204C60.7053 32.5909 61.6613 30.9977 63.7263 30.3349C66.3777 29.4937 69.1311 31.3673 69.2841 34.1459C69.335 35.0891 69.386 36.0322 69.2713 36.9627C69.1693 37.8676 69.539 38.1863 70.3675 38.3647C73.4778 39.053 76.2694 40.3913 78.5639 42.6728C81.0368 45.1327 82.1968 48.1535 82.184 51.6203C82.184 53.9655 80.3612 55.8264 78.0667 55.9029C75.7468 55.9794 73.7073 54.2969 73.6308 51.9772C73.5416 49.7084 72.4326 48.2427 70.495 47.3887C66.8366 45.7828 63.089 45.7318 59.4561 47.4397C55.785 49.1731 55.2368 54.042 58.3216 56.7186C60.017 58.1971 62.1075 58.8854 64.147 59.6501C66.6199 60.5678 69.1438 61.3326 71.5658 62.3395C78.5384 65.2583 82.2095 70.5478 82.1713 77.456Z" fill="#2BC7D9"/>
</svg>
