<svg width="261" height="40" viewBox="0 0 261 40" fill="none" xmlns="http://www.w3.org/2000/svg">
<path d="M0 33.096V6.25674H26.8393L8.58684 14.3258L0 33.096Z" fill="#2BC7D9"/>
<path d="M26.8393 6.25674V33.096H0L18.2524 25.0701L26.8393 6.25674Z" fill="#79F2E6"/>
<path d="M50.7012 0.474638C50.9601 0.517788 51.1758 0.560938 51.3916 0.647238C51.6073 0.733538 51.7799 0.906137 51.9525 1.07874C52.1251 1.25134 52.2546 1.51024 52.4272 1.76914L66.1489 25.9331C66.192 25.2859 66.2352 24.7249 66.3215 24.1208C66.4078 23.5599 66.4509 22.9989 66.4941 22.5243L69.1262 0.431488H76.8501L72.0173 39.5685H67.4434C66.753 39.5685 66.192 39.4822 65.7605 39.2664C65.329 39.0507 64.9407 38.7055 64.5955 38.1014L50.9169 13.9374C50.8738 14.4552 50.8306 14.9299 50.7875 15.4045C50.7443 15.8792 50.7012 16.3107 50.6581 16.7422L47.9828 39.5685H40.3021L45.1349 0.431488H49.7519C50.0971 0.431488 50.4423 0.431488 50.7012 0.474638Z" fill="white"/>
<path d="M101.187 7.16288H86.7314L85.4369 17.4757H97.5189L96.6128 24.2071H84.5739L82.6753 39.5253H73.8727L78.7487 0.431488H102.05L101.187 7.16288Z" fill="white"/>
<path d="M132.6 0.431488L131.694 7.37863H121.769L117.799 39.5685H109.083L113.01 7.37863H102.999L103.862 0.431488H132.6Z" fill="white"/>
<path d="M145.804 25.1564V39.5685H140.626V1.07877H151.974C154.391 1.07877 156.548 1.38082 158.317 1.94176C160.086 2.50271 161.597 3.32256 162.805 4.35816C163.97 5.39376 164.876 6.64511 165.437 8.11221C165.998 9.5793 166.3 11.219 166.3 13.0313C166.3 14.8436 165.998 16.4401 165.351 17.9504C164.703 19.4175 163.797 20.712 162.589 21.7907C161.381 22.8695 159.871 23.6893 158.101 24.2934C156.332 24.8975 154.261 25.1996 151.931 25.1996H145.804V25.1564ZM145.804 21.014H151.974C153.441 21.014 154.779 20.7983 155.901 20.4099C157.023 20.0216 157.972 19.4606 158.749 18.7702C159.525 18.0798 160.086 17.2168 160.475 16.2244C160.863 15.2319 161.079 14.1532 161.079 12.9882C161.079 10.5286 160.302 8.63001 158.792 7.24921C157.282 5.86841 154.995 5.17801 151.931 5.17801H145.761V21.014H145.804Z" fill="white"/>
<path d="M177.476 0V39.5685H172.686V0H177.476Z" fill="white"/>
<path d="M205.912 39.5685H203.797C203.323 39.5685 202.934 39.4822 202.675 39.3527C202.373 39.2233 202.201 38.9212 202.114 38.4466L201.597 35.9007C200.863 36.548 200.173 37.1089 199.482 37.6267C198.792 38.1445 198.101 38.576 197.325 38.9212C196.591 39.2664 195.771 39.5253 194.908 39.6979C194.045 39.8705 193.096 39.9568 192.06 39.9568C191.025 39.9568 190.032 39.8274 189.083 39.5253C188.177 39.2233 187.357 38.7918 186.667 38.1877C185.976 37.5836 185.458 36.85 185.027 35.9439C184.639 35.0377 184.423 33.959 184.423 32.7076C184.423 31.6289 184.725 30.5933 185.329 29.6008C185.933 28.6084 186.882 27.7022 188.177 26.9255C189.515 26.1488 191.197 25.5016 193.355 25.0269C195.469 24.5523 198.101 24.2934 201.165 24.2934V22.179C201.165 20.0647 200.734 18.425 199.827 17.3463C198.921 16.2675 197.584 15.7066 195.814 15.7066C194.649 15.7066 193.657 15.836 192.88 16.1381C192.104 16.4401 191.413 16.7853 190.809 17.1305C190.248 17.5189 189.73 17.8209 189.299 18.123C188.867 18.425 188.479 18.5545 188.047 18.5545C187.745 18.5545 187.443 18.4682 187.184 18.2956C186.926 18.123 186.753 17.9072 186.624 17.6483L185.761 16.1381C187.271 14.671 188.867 13.5922 190.636 12.9018C192.362 12.1683 194.304 11.8231 196.419 11.8231C197.929 11.8231 199.31 12.082 200.475 12.5566C201.64 13.0744 202.632 13.7648 203.452 14.671C204.272 15.5771 204.876 16.6559 205.264 17.9072C205.696 19.1586 205.868 20.5825 205.868 22.0927V39.5685H205.912ZM193.484 36.6343C194.304 36.6343 195.081 36.548 195.814 36.3754C196.505 36.2028 197.152 35.9439 197.799 35.6418C198.403 35.3398 199.008 34.9514 199.569 34.5199C200.129 34.0884 200.69 33.5706 201.208 33.0097V27.4002C199.008 27.4002 197.152 27.5296 195.599 27.8317C194.045 28.0906 192.794 28.4789 191.845 28.9104C190.895 29.3419 190.162 29.9029 189.73 30.507C189.299 31.1111 189.083 31.8015 189.083 32.5782C189.083 33.3117 189.213 33.9158 189.428 34.4336C189.644 34.9514 189.989 35.3829 190.378 35.7281C190.766 36.0733 191.241 36.2891 191.758 36.4617C192.276 36.548 192.88 36.6343 193.484 36.6343Z" fill="white"/>
<path d="M231.715 17.1737C231.586 17.3894 231.413 17.5189 231.284 17.6483C231.154 17.7346 230.939 17.8209 230.68 17.8209C230.421 17.8209 230.119 17.6915 229.817 17.4757C229.515 17.26 229.126 17.0011 228.608 16.7422C228.134 16.4833 227.53 16.2244 226.839 16.0086C226.149 15.7929 225.286 15.6634 224.293 15.6634C222.956 15.6634 221.791 15.9223 220.755 16.397C219.72 16.8716 218.9 17.562 218.209 18.4682C217.519 19.3743 217.001 20.4531 216.656 21.7044C216.311 22.9558 216.138 24.3797 216.138 25.9762C216.138 27.6159 216.311 29.083 216.699 30.3775C217.087 31.672 217.605 32.7508 218.296 33.6138C218.986 34.4768 219.806 35.124 220.798 35.5987C221.791 36.0733 222.869 36.2891 224.078 36.2891C225.243 36.2891 226.192 36.1596 226.969 35.8576C227.702 35.5987 228.35 35.2535 228.867 34.9514C229.385 34.6062 229.773 34.3042 230.119 34.0453C230.421 33.7864 230.766 33.6138 231.068 33.6138C231.499 33.6138 231.802 33.7864 231.974 34.0884L233.312 35.8144C232.147 37.2815 230.636 38.3171 228.867 39.0075C227.098 39.6979 225.243 40 223.258 40C221.575 40 219.978 39.6979 218.511 39.0507C217.044 38.4034 215.793 37.4973 214.714 36.3322C213.635 35.124 212.772 33.6569 212.168 31.9309C211.564 30.2049 211.262 28.22 211.262 25.9762C211.262 23.9482 211.564 22.0928 212.125 20.3668C212.686 18.6408 213.506 17.1737 214.585 15.9223C215.663 14.671 217.001 13.7217 218.598 12.9881C220.194 12.2977 222.006 11.9525 224.078 11.9525C225.976 11.9525 227.659 12.2546 229.126 12.8587C230.593 13.4628 231.888 14.3689 233.01 15.4908L231.715 17.1737Z" fill="white"/>
<path d="M249.018 11.9094C250.658 11.9094 252.168 12.1683 253.549 12.7292C254.93 13.2902 256.138 14.0669 257.131 15.1025C258.123 16.1381 258.9 17.3894 259.461 18.8997C260.022 20.4099 260.324 22.1359 260.324 24.0777C260.324 24.8112 260.237 25.329 260.065 25.5879C259.892 25.8468 259.59 25.9763 259.159 25.9763H241.036C241.079 27.7023 241.295 29.1694 241.726 30.4639C242.158 31.7152 242.762 32.794 243.495 33.657C244.229 34.52 245.135 35.1241 246.17 35.5556C247.206 35.9871 248.371 36.2028 249.666 36.2028C250.874 36.2028 251.909 36.0734 252.772 35.7713C253.635 35.5124 254.369 35.2104 255.016 34.8652C255.663 34.5631 256.181 34.2611 256.57 33.959C257.001 33.7001 257.346 33.5275 257.648 33.5275C258.037 33.5275 258.339 33.7001 258.555 34.0022L259.892 35.7282C259.288 36.4617 258.598 37.0658 257.778 37.5836C256.958 38.1014 256.052 38.5329 255.146 38.8781C254.196 39.2233 253.247 39.4822 252.211 39.6548C251.219 39.8274 250.227 39.9137 249.234 39.9137C247.336 39.9137 245.61 39.6117 244.056 38.9644C242.503 38.3172 241.122 37.411 239.957 36.1597C238.792 34.9515 237.886 33.3981 237.238 31.5858C236.591 29.7735 236.289 27.7023 236.289 25.3722C236.289 23.4736 236.591 21.7044 237.152 20.0647C237.713 18.425 238.576 17.0011 239.655 15.7929C240.734 14.5847 242.071 13.6354 243.668 12.945C245.264 12.2546 247.033 11.9094 249.018 11.9094ZM249.148 15.4477C246.818 15.4477 245.005 16.0949 243.711 17.4326C242.373 18.7702 241.553 20.6257 241.251 22.9989H256.052C256.052 21.877 255.879 20.8846 255.577 19.9353C255.275 19.0291 254.844 18.2093 254.24 17.562C253.635 16.8716 252.945 16.3538 252.082 16.0086C251.176 15.6203 250.227 15.4477 249.148 15.4477Z" fill="white"/>
</svg>
