<svg width="130" height="92" viewBox="0 0 130 92" fill="none" xmlns="http://www.w3.org/2000/svg">
<path d="M0.462769 9.36731C0.988519 8.69565 1.01242 7.82008 1.34698 7.07645C1.59791 6.51273 1.80104 6.44077 2.19535 6.90853C2.32679 7.06446 2.48213 7.20839 2.63746 7.36431C14.9926 19.8021 27.3477 32.252 39.7267 44.6658C40.4198 45.3614 40.4198 45.7093 39.7267 46.4049C27.3477 58.8188 14.9926 71.2686 2.63746 83.7064C1.62181 84.7259 1.64571 84.7139 1.13191 83.3946C0.904877 82.8308 0.940723 82.1592 0.462769 81.6914C0.462769 57.5834 0.462769 33.4753 0.462769 9.36731Z" fill="#2BC7D9"/>
<path d="M129.463 81.6915C128.925 82.3511 128.913 83.2267 128.579 83.9703C128.328 84.5341 128.124 84.606 127.73 84.1383C127.599 83.9823 127.443 83.8384 127.288 83.6825C114.945 71.2567 102.59 58.8188 90.2227 46.405C89.5297 45.7093 89.5177 45.3615 90.2227 44.6659C102.59 32.252 114.933 19.8022 127.288 7.36438C128.328 6.3209 128.316 6.3209 128.841 7.77218C129.057 8.38387 129.068 9.06753 129.463 9.60727C129.463 33.6433 129.463 57.6674 129.463 81.6915Z" fill="#2BC7D9"/>
<path d="M122.783 1.10345C122.449 1.46327 122.162 1.77512 121.875 2.06298C104.119 19.9461 86.3392 37.7932 68.6549 55.7483C66.6116 57.8233 63.3615 57.8593 61.2705 55.7363C43.5862 37.7812 25.8063 19.9341 8.05023 2.06298C7.76346 1.76312 7.47669 1.46327 7.14212 1.10345C8.70742 0.311845 10.2966 0 11.9456 0C15.0164 0 18.0753 0 21.1462 0C53.217 0 85.2997 0 117.37 0C119.234 0 121.027 0.191905 122.783 1.10345Z" fill="#2BC7D9"/>
<path d="M122.676 90.0273C121.075 90.8069 119.366 91.0588 117.585 91.0588C102.422 91.0468 87.2712 91.0588 72.1081 91.0588C52.2491 91.0588 32.3901 91.0588 12.5191 91.0708C10.6909 91.0708 8.93444 90.8429 7.2616 90.0393C7.28549 89.5715 7.66786 89.4036 7.90684 89.1517C20.262 76.7019 32.629 64.2641 44.9603 51.7783C45.7131 51.0106 46.0715 51.0586 46.7885 51.8022C49.8832 55.0047 53.0497 58.1591 56.1922 61.3135C61.2944 66.435 68.5832 66.447 73.6853 61.3375C76.8996 58.1231 80.1019 54.8967 83.2803 51.6583C83.7941 51.1426 84.0809 50.9147 84.7261 51.5744C97.2127 64.1921 109.735 76.7858 122.246 89.3796C122.437 89.5475 122.676 89.6794 122.676 90.0273Z" fill="#2BC7D9"/>
</svg>
