<svg width="141" height="129" viewBox="0 0 141 129" fill="none" xmlns="http://www.w3.org/2000/svg">
<path d="M52.6931 17.6017C46.2008 17.6017 40.8924 22.9337 40.9705 29.3999C41.0616 35.853 46.3309 41.0546 52.7451 41.0286C59.1594 41.0025 64.4157 35.6966 64.3896 29.2695C64.3766 22.8294 59.1333 17.6017 52.6931 17.6017ZM52.641 35.1751C49.4404 35.149 46.8643 32.5287 46.8643 29.2956C46.8643 26.0625 49.4404 23.4552 52.654 23.4291C55.8677 23.4161 58.4828 26.0104 58.5088 29.2304C58.5218 32.5287 55.8807 35.2012 52.641 35.1751ZM52.6931 17.6017C46.2008 17.6017 40.8924 22.9337 40.9705 29.3999C41.0616 35.853 46.3309 41.0546 52.7451 41.0286C59.1594 41.0025 64.4157 35.6966 64.3896 29.2695C64.3766 22.8294 59.1333 17.6017 52.6931 17.6017ZM52.641 35.1751C49.4404 35.149 46.8643 32.5287 46.8643 29.2956C46.8643 26.0625 49.4404 23.4552 52.654 23.4291C55.8677 23.4161 58.4828 26.0104 58.5088 29.2304C58.5218 32.5287 55.8807 35.2012 52.641 35.1751ZM140.255 9.55811C138.29 2.87031 134.491 0.00225273 127.582 0.00225273C97.1374 0.00225273 66.6925 0.00225273 36.2346 0.00225273C35.0897 0.00225273 33.9447 -0.0368572 32.8258 0.210839C27.0621 1.46236 23.4061 6.14251 23.3931 12.348C23.3801 35.3446 23.3801 58.3412 23.3931 81.3379C23.3931 88.8339 28.3762 93.8009 35.8573 93.8009C52.1336 93.8009 68.4099 93.8009 84.6862 93.8009C99.128 93.8009 113.583 93.8009 128.025 93.8009C134.205 93.8009 138.433 90.633 140.164 84.7274C140.229 84.5188 140.19 84.2581 140.463 84.1799V9.68848C140.398 9.64937 140.268 9.61026 140.255 9.55811ZM29.3 76.4231C29.2869 55.069 29.2869 33.728 29.3 12.374C29.3 8.15015 31.6158 5.84267 35.8313 5.84267C66.5494 5.84267 97.2805 5.84267 127.999 5.84267C132.279 5.84267 134.634 8.17623 134.634 12.4392C134.634 29.9344 134.634 47.4296 134.634 65.3549C134.036 64.677 133.684 64.2729 133.346 63.8688C125.41 54.5867 117.473 45.2915 109.524 36.0225C106.57 32.5808 102.667 31.6291 98.8158 33.35C97.3586 34.0018 96.2527 35.0708 95.2509 36.2832C88.121 44.8744 80.9652 53.4395 73.8614 62.0567C73.0938 62.9823 72.7425 62.9432 71.9488 62.1219C69.8151 59.8535 67.5772 57.6894 65.3785 55.4992C61.111 51.2363 55.9067 51.2623 51.6262 55.5514C44.6135 62.5521 37.5877 69.5919 30.588 76.6316C30.2497 76.9706 30.0155 77.4269 29.6642 77.9483C29.1829 77.2183 29.3 76.8011 29.3 76.4231ZM134.647 75.7321C134.582 77.6615 134.634 79.5779 134.621 81.5073C134.595 85.5748 132.188 87.9735 128.103 87.9735C112.698 87.9866 97.2935 87.9735 81.889 87.9735C66.5364 87.9735 51.1708 87.9735 35.8183 87.9866C33.9057 87.9866 32.2273 87.5042 30.8482 86.1093C30.3538 85.6139 30.2237 85.2489 30.8092 84.6622C39.3312 76.1623 47.8141 67.6364 56.3361 59.1365C57.7152 57.7546 59.3805 57.8198 60.8117 59.2408C64.0644 62.4608 67.278 65.72 70.5177 68.9531C72.5083 70.9477 74.1086 70.8825 75.9041 68.7054C83.8015 59.2147 91.699 49.711 99.5964 40.2203C101.6 37.8085 103.304 37.7824 105.321 40.1421C114.806 51.2363 124.278 62.3304 133.788 73.3986C134.4 74.0895 134.686 74.7935 134.647 75.7321ZM52.7451 41.0286C59.1594 41.0025 64.4157 35.6966 64.3896 29.2695C64.3766 22.8294 59.1333 17.6017 52.6801 17.6017C46.1878 17.6017 40.8794 22.9337 40.9575 29.3999C41.0486 35.853 46.3309 41.0546 52.7451 41.0286ZM52.654 23.4421C55.8677 23.4291 58.4828 26.0234 58.5088 29.2434C58.5349 32.5417 55.8937 35.2142 52.654 35.1882C49.4534 35.1621 46.8773 32.5417 46.8773 29.3086C46.8643 26.0625 49.4404 23.4552 52.654 23.4421Z" fill="#2BC7D9"/>
<path d="M100.143 128.987C97.0333 127.84 93.7937 127.149 90.6061 126.288C65.0922 119.418 39.5784 112.587 14.0645 105.743C12.217 105.247 10.3435 104.817 8.52197 104.243C4.00728 102.809 1.24902 99.7458 0.234192 95.0917C0.19516 94.9222 0.0780638 94.7788 0 94.6223C0 93.3448 0 92.0541 0 90.7765C1.13193 87.9997 1.67837 85.0404 2.45901 82.1593C5.54253 70.7914 8.561 59.4104 11.6055 48.0294C11.6575 47.8469 11.7226 47.6774 11.7746 47.5079C12.3341 45.7219 13.8173 44.7963 15.4046 45.2395C17.0179 45.6958 17.8636 47.2472 17.3952 49.0332C15.2355 57.1941 13.0497 65.3551 10.8639 73.516C9.30261 79.3434 7.74133 85.1577 6.18005 90.9851C5.17823 94.7266 6.92166 97.7642 10.6427 98.768C40.4891 106.786 70.3225 114.79 100.169 122.795C103.968 123.811 106.843 122.156 107.897 118.323C109.367 112.952 110.799 107.568 112.256 102.197C112.672 100.658 113.635 99.7457 114.962 99.6806C116.211 99.6154 117.161 100.163 117.772 101.284C118.241 102.158 118.111 103.057 117.863 103.957C116.862 107.698 115.847 111.453 114.832 115.194C114.324 117.045 113.908 118.923 113.297 120.735C111.787 125.219 108.743 128.009 103.994 128.765C103.89 128.778 103.799 128.922 103.708 129C102.511 128.987 101.327 128.987 100.143 128.987Z" fill="#2BC7D9"/>
<path d="M52.6931 17.6017C46.2008 17.6017 40.8925 22.9337 40.9705 29.3998C41.0616 35.853 46.3309 41.0546 52.7452 41.0285C59.1594 41.0025 64.4157 35.6965 64.3897 29.2695C64.3767 22.8294 59.1334 17.6017 52.6931 17.6017ZM52.6411 35.1751C49.4405 35.149 46.8644 32.5286 46.8644 29.2956C46.8644 26.0625 49.4405 23.4551 52.6541 23.4291C55.8677 23.416 58.4829 26.0103 58.5089 29.2304C58.5219 32.5286 55.8807 35.2012 52.6411 35.1751Z" fill="#2BC7D9"/>
</svg>
