<svg width="116" height="129" viewBox="0 0 116 129" fill="none" xmlns="http://www.w3.org/2000/svg">
<g clip-path="url(#clip0_10_22)">
<path d="M84.5303 0C86.5375 0.513754 88.6045 0.8005 90.4923 1.72048C98.2822 5.50792 102.392 11.7208 102.5 20.3709C102.631 30.4907 102.548 40.5985 102.524 50.7183C102.524 53.514 101.15 55.342 98.7482 55.9872C96.6095 56.5607 94.3753 55.6527 93.2044 53.753C92.5353 52.6657 92.4517 51.471 92.4517 50.2403C92.4517 40.5029 92.4397 30.7655 92.4636 21.0281C92.4636 18.531 91.9977 16.2012 90.4564 14.17C88.3775 11.446 85.5937 10.0839 82.2125 10.0839C61.6862 10.06 41.1599 10.0481 20.6337 10.0839C14.9465 10.0959 10.8485 14.0625 10.4303 19.7497C10.3944 20.2037 10.3825 20.6696 10.3825 21.1356C10.3825 50.0611 10.3944 78.9747 10.3706 107.9C10.3706 111.52 11.4697 114.555 14.385 116.825C16.3205 118.331 18.5548 118.916 20.9682 118.916C26.3806 118.916 31.7929 118.892 37.2172 118.928C39.6067 118.94 41.4706 120.35 42.1277 122.524C42.749 124.543 41.9485 126.885 40.1802 128.08C39.6426 128.438 39.0332 128.701 38.4597 129C31.6615 129 24.8512 129 18.053 129C14.2297 128.821 10.8604 127.399 7.92126 125.057C2.92709 121.067 0.0715781 115.881 0.0596303 109.418C-0.0120563 79.4646 -0.000108485 49.5354 0.0118393 19.5943C0.0118393 11.0278 6.20078 2.86746 14.4328 0.525702C15.6037 0.191164 16.8343 0.250903 18.0171 0C40.1922 0 62.3553 0 84.5303 0Z" fill="#2BC7D9"/>
<path d="M115.607 81.0774C114.519 75.1394 111.007 71.0771 105.224 69.273C99.4412 67.4689 94.2559 68.8668 89.9667 73.1083C80.8625 82.1049 71.83 91.1852 62.7735 100.218C61.9492 101.03 61.3757 101.962 61.0411 103.085C59.1175 109.453 57.1581 115.81 55.2584 122.178C54.3384 125.248 55.5929 127.65 58.5799 128.785C58.6755 128.821 58.7591 128.928 58.8427 129.012H60.8619C61.2084 128.546 61.7699 128.725 62.212 128.594C68.2934 126.861 74.3748 125.153 80.4682 123.528C82.1528 123.074 83.5149 122.273 84.7335 121.055C93.2164 112.56 101.723 104.089 110.206 95.6059C110.923 94.889 111.64 94.1841 112.285 93.4195C115.284 89.8112 116.455 85.6415 115.607 81.0774ZM95.5702 95.9763C89.7516 101.735 83.9689 107.53 78.1742 113.312C77.9472 113.539 77.7441 113.802 77.3857 113.898C74.1239 114.794 70.8741 115.702 67.4332 116.658C68.4487 113.336 69.4165 110.194 70.3723 107.04C70.4918 106.646 70.8024 106.431 71.0653 106.168C76.8241 100.409 82.6068 94.674 88.3418 88.9032C88.963 88.27 89.2856 88.2939 89.883 88.9271C91.7349 90.8746 93.6466 92.7623 95.5821 94.6262C96.1436 95.1638 96.1078 95.4386 95.5702 95.9763ZM103.73 87.816C103.42 88.1027 103.253 88.1027 102.942 87.7921C100.851 85.6773 98.7483 83.5745 96.6335 81.4836C96.3348 81.1849 96.3348 81.0057 96.6096 80.6712C98.0194 78.9268 100.433 78.1861 102.488 78.9388C104.447 79.6556 105.774 81.5673 105.762 84.0524C105.797 85.4025 104.937 86.6809 103.73 87.816Z" fill="#2BC7D9"/>
<path d="M51.3993 30.2397C59.9658 30.2397 68.5324 30.2158 77.0989 30.2517C81.2328 30.2636 83.6941 34.3976 81.651 37.8385C80.731 39.3917 79.3212 40.2161 77.5171 40.3117C76.6329 40.3595 75.7488 40.3236 74.8766 40.3236C58.5799 40.3236 42.2951 40.3236 25.9983 40.3236C22.3782 40.3236 20.0722 37.8983 20.5024 34.5529C20.8249 32.02 22.9158 30.2636 25.7116 30.2517C32.5935 30.2278 39.4874 30.2397 46.3693 30.2397C48.0419 30.2397 49.7146 30.2397 51.3993 30.2397Z" fill="#2BC7D9"/>
<path d="M51.3873 50.3956C59.9539 50.3956 68.5204 50.3717 77.087 50.4076C80.8625 50.4195 83.3118 53.8127 82.0334 57.182C81.2926 59.1294 79.835 60.1808 77.7919 60.4437C77.5052 60.4795 77.2065 60.4795 76.9078 60.4795C59.9061 60.4795 42.8925 60.4915 25.8908 60.4795C22.3184 60.4795 20.0245 57.9466 20.5143 54.6012C20.8728 52.14 22.9636 50.4195 25.6877 50.4076C32.032 50.3837 38.3643 50.3956 44.7085 50.3956C46.9308 50.3956 49.1531 50.3956 51.3873 50.3956Z" fill="#2BC7D9"/>
<path d="M41.3273 70.5515C46.5246 70.5515 51.7338 70.5276 56.9311 70.5634C59.1056 70.5754 60.7305 71.6268 61.5668 73.634C62.3673 75.5695 62.0567 77.4214 60.6229 79.0105C59.6791 80.0619 58.4604 80.6115 57.0625 80.6115C46.4887 80.6234 35.915 80.6473 25.3412 80.5995C22.5335 80.5876 20.4307 78.3175 20.4307 75.5815C20.4307 72.7977 22.5813 70.5873 25.4726 70.5634C30.7535 70.5156 36.0464 70.5515 41.3273 70.5515Z" fill="#2BC7D9"/>
</g>
<defs>
<clipPath id="clip0_10_22">
<rect width="115.881" height="129" fill="white"/>
</clipPath>
</defs>
</svg>
